PathFileType	3	(X/Y/Z)	D:\minhoCalibration\240510\subject2_KPNP\preferred\preferred19.trc
DataRate	CameraRate	NumFrames	NumMarkers	Units	OrigDataRate	OrigDataStartFrame	OrigNumFrames
200.0	200.0	27	10	mm	200.0	309	191	
Frame#	Time	Left_Ankle_Outer1			Left_Ankle_Inner1			Left_Knee_Outer1			Left_Knee_Inner1			Left_Wrist1			Right_Wrist1			Right_Knee_Inner1			Right_Knee_Outer1			Right_Ankle_Inner1			Right_Ankle_Outer1			
		X1	Y1	Z1	X2	Y2	Z2	X3	Y3	Z3	X4	Y4	Z4	X5	Y5	Z5	X6	Y6	Z6	X7	Y7	Z7	X8	Y8	Z8	X9	Y9	Z9	X10	Y10	Z10	
309	1.535	-720.77094	114.18759	-584.48413	-714.68707	120.44778	-527.81976	-537.14001	522.54248	-640.22528	-536.93182	507.94852	-544.39093	-674.99414	932.3764	-726.13751	-670.31329	1169.4301	-467.72659	-389.09827	1008.7645	-165.55478	-426.92456	1089.6178	-156.06129	-306.37329	935.87134	236.10654	-330.52594	1029.851	257.3075
310	1.54	-719.72308	115.0805	-584.67664	-714.74774	120.78878	-528.58453	-533.71069	523.79706	-635.83441	-538.5318	508.95691	-539.70551	-673.39777	931.83618	-724.67456	-673.00818	1170.6144	-466.41946	-389.3027	1011.8855	-166.41498	-432.88412	1088.3035	-151.74919	-307.15097	933.14038	236.95786	-336.121	1027.5894	260.16522
311	1.545	-719.02087	116.08156	-584.85474	-714.24335	122.10117	-527.62939	-529.85553	525.41235	-631.6496	-540.30652	510.10031	-535.20312	-671.40314	931.39777	-723.4408	-675.6485	1171.5916	-465.94058	-389.07388	1014.3748	-165.61757	-437.66589	1086.4885	-147.28899	-308.65988	931.40875	239.5775	-341.96786	1026.5249	264.08215
312	1.55	-718.25928	117.07826	-584.82916	-714.36462	121.10927	-530.83466	-526.38458	526.58044	-627.60474	-542.23657	511.17117	-531.06799	-669.00708	931.22229	-722.73322	-678.53308	1172.4113	-465.42529	-387.41281	1016.971	-163.48129	-442.26273	1084.1932	-143.08704	-311.40506	929.78571	240.58696	-346.58652	1023.9194	266.88525
313	1.555	-717.48291	118.03197	-584.77808	-713.10883	122.94645	-529.16357	-523.97064	527.08514	-623.62299	-544.09161	512.25934	-527.47083	-666.49866	931.3866	-722.52325	-681.44849	1173.0675	-464.97394	-393.67648	1016.1428	-156.48062	-447.89087	1081.5669	-138.91011	-315.60312	928.91388	245.80589	-350.55093	1019.8667	269.55051
314	1.56	-716.98376	119.35535	-585.27515	-713.00653	123.56451	-528.83929	-521.71198	527.97137	-620.24188	-545.63934	513.40417	-524.52509	-663.90143	932.00403	-722.68231	-684.31018	1172.954	-464.80463	-399.64197	1013.4059	-151.46754	-455.00546	1078.4912	-134.76866	-315.87637	924.20697	245.52902	-354.13959	1013.9056	272.17386
315	1.565	-716.44727	120.16914	-585.25336	-713.51526	123.72038	-528.80853	-520.07721	528.92554	-617.37885	-546.7691	514.43964	-522.34033	-661.34491	933.25787	-723.01825	-687.49048	1172.5295	-464.95352	-407.32825	1008.8766	-147.07016	-463.07837	1075.0864	-130.81818	-312.00159	920.84747	241.1705	-358.32034	1006.8177	275.01929
316	1.57	-716.01141	120.74458	-585.2323	-713.08685	124.3183	-528.52045	-518.9552	529.75537	-615.24188	-547.2655	515.37646	-520.81116	-658.62787	934.7561	-723.36481	-690.34985	1171.6051	-464.73206	-416.30212	1003.5793	-142.81921	-471.47336	1071.7156	-126.94414	-314.45929	913.52856	242.03958	-361.73929	998.14484	277.67636
317	1.575	-715.52338	121.00819	-584.80939	-712.69855	124.93258	-528.00494	-518.40936	530.32391	-613.65179	-547.03589	515.97522	-520.06903	-655.78979	936.52228	-723.70062	-693.1142	1170.229	-464.3848	-425.76932	998.59821	-139.07195	-479.91827	1068.7073	-122.73857	-319.7002	906.24066	247.86847	-365.03342	988.45331	279.46317
318	1.58	-715.16614	121.25953	-584.8338	-713.40039	123.79935	-530.1828	-518.15002	530.80164	-612.63531	-546.37555	516.35052	-519.77179	-652.84351	938.37476	-724.07764	-696.15527	1168.6561	-463.70468	-434.54059	994.54474	-136.17154	-487.54584	1066.1372	-118.57973	-325.7905	896.18085	247.58684	-368.72464	978.66858	281.07727
319	1.585	-714.91022	121.4436	-584.99432	-712.62292	124.95122	-528.64764	-518.41351	531.14948	-612.10114	-545.4281	516.37933	-519.96045	-649.71674	940.51562	-724.54395	-699.3869	1166.923	-462.86154	-442.39029	990.78516	-133.76155	-494.02545	1063.2	-114.74203	-331.83148	886.46423	247.2068	-372.69183	969.08466	282.40829
320	1.59	-714.78253	121.6541	-585.68134	-712.85156	125.10261	-528.37585	-519.17041	531.00201	-612.0838	-544.46277	516.19879	-520.54028	-646.41626	942.68988	-725.08997	-702.61591	1164.9924	-462.18704	-448.91953	987.18311	-131.62341	-500.75717	1059.7255	-110.02871	-336.40491	877.70325	246.87846	-377.00922	959.63092	283.62314
321	1.595	-714.30408	121.00488	-585.6546	-714.02649	123.12627	-531.94489	-520.07263	530.74585	-612.59332	-543.78296	515.84174	-521.28094	-643.02069	945.02618	-725.72925	-705.98541	1163.0609	-461.60101	-453.95993	983.60168	-129.76826	-506.49005	1055.1854	-106.64034	-341.9451	869.99384	247.25418	-383.32306	950.79602	285.28677
322	1.6	-714.23181	121.00188	-586.53046	-713.4231	124.21001	-530.53784	-521.37091	530.14044	-613.3385	-543.4826	515.3551	-522.14966	-639.64282	947.29401	-726.31244	-709.58295	1161.1846	-461.02094	-458.38644	979.71222	-128.31952	-511.92105	1050.3712	-103.88535	-348.34143	861.82312	247.21785	-390.83911	941.45416	285.96591
323	1.605	-714.10815	120.70481	-587.46808	-714.08923	123.11292	-532.90533	-522.87909	529.31348	-614.31714	-543.75134	514.70746	-523.0545	-636.34235	949.50885	-726.84308	-713.3703	1159.3542	-460.48633	-462.64023	975.18237	-127.24185	-516.73621	1045.2766	-102.17921	-356.38916	852.93146	247.41043	-399.38443	931.62781	287.13416
324	1.61	-714.06665	120.52863	-589.01093	-714.04633	123.51765	-532.38226	-524.59918	528.37708	-615.33167	-544.57483	514.04633	-523.80664	-633.11865	951.52277	-727.31952	-717.34674	1157.7825	-460.21118	-466.77505	970.30603	-126.64401	-520.97571	1040.105	-101.0517	-365.72006	842.81665	247.34605	-408.70114	920.74884	288.36588
325	1.615	-713.91034	119.57809	-589.35449	-714.15558	123.85681	-531.59448	-526.42798	527.37842	-616.14056	-545.90204	513.26874	-524.50098	-629.92719	953.37042	-727.62	-721.18152	1156.4686	-460.12787	-470.37402	965.5047	-126.80964	-524.56262	1035.0701	-100.59065	-375.18478	831.32324	247.77162	-418.52084	908.3855	288.35767
326	1.62	-713.87817	118.94843	-590.6601	-715.29211	121.66836	-535.8717	-528.22821	526.36072	-616.80078	-547.6991	512.52429	-525.14545	-626.96155	954.99048	-727.72559	-725.22388	1155.3239	-460.33542	-474.15021	960.48315	-126.9528	-527.80005	1030.2583	-100.44604	-384.96735	819.35797	247.82695	-430.5264	895.56848	289.19022
327	1.625	-713.89099	117.88559	-591.13074	-715.47711	121.62482	-535.2262	-529.05621	526.02734	-617.6651	-549.80084	511.76202	-525.72681	-624.17761	956.29425	-727.48767	-729.10187	1154.3358	-460.70801	-477.45114	955.63049	-127.31229	-530.87976	1025.5409	-100.48117	-391.11108	806.6239	243.25696	-442.22238	881.48383	289.11325
328	1.63	-714.20697	116.97502	-591.89917	-716.54907	120.08131	-536.97302	-530.94495	524.79144	-617.67181	-552.23462	510.78052	-525.87341	-621.61786	957.46368	-727.16296	-733.25507	1153.0132	-461.43152	-481.70636	950.20697	-127.09214	-534.07196	1020.8106	-100.60281	-401.38123	793.46912	241.79193	-454.1799	866.17578	288.34818
329	1.635	-714.60205	116.23506	-592.86523	-716.26886	120.05857	-536.39984	-531.87421	524.22919	-617.93481	-554.91943	510.20413	-526.44727	-619.26263	958.03638	-726.44702	-736.96167	1151.8047	-462.28354	-485.17719	945.39954	-126.75935	-537.57263	1015.8249	-100.78361	-411.98227	779.74933	239.48871	-466.70822	850.87433	287.63531
330	1.64	-715.12396	115.12475	-593.25568	-717.48523	118.33556	-537.32684	-532.84052	523.63055	-618.0415	-557.59937	509.63712	-526.90863	-617.00397	958.36481	-726.0567	-739.72437	1149.9742	-462.83783	-487.66605	940.93237	-126.31856	-541.4364	1010.5272	-100.74506	-423.62686	766.45862	238.22887	-479.44705	835.09662	286.05835
331	1.645	-715.70477	113.63895	-593.0694	-718.4032	117.35762	-537.18695	-533.79712	523.04596	-618.17133	-560.13812	509.46344	-527.46191	-615.27631	958.34302	-724.83856	-741.93231	1147.6281	-462.9678	-491.31439	935.69299	-125.15292	-545.4491	1004.9114	-100.65527	-435.69431	750.86896	234.77959	-492.48221	819.33203	284.16333
332	1.65	-716.41797	112.41575	-593.16339	-718.84302	116.99018	-535.66321	-534.70691	522.55499	-618.40411	-562.79022	508.97867	-527.93317	-612.93964	958.69196	-724.95026	-744.20758	1145.135	-463.91772	-493.20859	931.38892	-124.6737	-549.68652	999.10278	-100.20388	-447.61511	736.3316	231.21216	-506.02435	803.46295	282.19897
333	1.655	-717.17737	111.10533	-593.06384	-719.73334	115.72915	-535.53125	-535.91071	521.83618	-618.70593	-565.46533	508.54599	-528.5116	-611.03778	958.74304	-724.92889	-745.99377	1142.657	-464.24146	-495.70688	926.58716	-123.97175	-554.25195	992.98303	-99.37059	-461.50906	719.14154	227.24271	-519.43439	787.2785	279.03778
334	1.66	-718.03839	109.82449	-592.85455	-720.80396	113.59689	-537.33099	-537.17365	521.19019	-619.21014	-568.10754	508.13925	-529.23303	-609.52502	958.52252	-724.9798	-747.69354	1140.408	-464.23337	-498.9303	921.47272	-123.20031	-558.64368	986.66815	-98.566917	-474.57391	704.47955	223.3221	-533.10712	770.87915	275.36353
335	1.665	-718.96698	108.69929	-592.9035	-721.39105	113.19246	-535.32593	-538.7052	520.43384	-619.89319	-570.85144	507.50919	-529.87164	-608.19458	958.25574	-725.42188	-748.82281	1137.8414	-464.63956	-503.03613	915.76715	-122.12852	-563.14429	980.2179	-97.805412	-488.32141	688.29987	218.35275	-546.82025	754.3103	270.88092
